<svg width="48" height="48" viewBox="0 0 48 48" fill="none" xmlns="http://www.w3.org/2000/svg">
<path d="M6.43086 2.64206C-1.70355 7.39237 1.64708 15.4749 17.9949 15.4749L18.2607 8.87184C11.5979 10.1843 2.40711 10.3315 6.43095 2.64215L6.43086 2.64206ZM41.911 2.64206C45.9348 10.3316 36.7441 10.1842 30.0812 8.87175L30.347 15.4749C46.695 15.4749 50.0455 7.39247 41.9111 2.64206H41.911ZM16.3318 20.697C15.9757 20.7067 15.6045 20.7706 15.224 20.8927C15.0471 23.6885 16.3144 25.609 19.7724 24.6314C19.7291 22.1695 18.2542 20.6442 16.3318 20.697ZM32.008 20.697C30.0855 20.6442 28.6105 22.1695 28.5674 24.6313C32.0255 25.6091 33.2928 23.6885 33.116 20.8926C32.7355 20.7707 32.3641 20.7067 32.008 20.697ZM27.0277 35.9501L26.0159 37.3813C27.4723 38.4105 27.815 40.3997 26.7856 41.856C25.7565 43.3125 23.7687 43.6537 22.3125 42.6247C20.8561 41.5955 20.5134 39.6066 21.5428 38.1502C21.7328 37.8807 21.9633 37.6422 22.226 37.443L21.1701 36.0467C20.7632 36.354 20.4062 36.7222 20.1115 37.1384C18.536 39.3682 19.0711 42.4805 21.3007 44.056C23.5304 45.6316 26.6404 45.0965 28.2159 42.8667C29.7915 40.637 29.2575 37.5261 27.0279 35.9505L27.0277 35.9501Z" fill="black"/>
</svg>
